<?xml version="1.0" encoding="UTF-8"?>
<svg width="32" height="32" viewBox="0 0 32 32" xmlns="http://www.w3.org/2000/svg">
  <style>
    @keyframes rotate {
      0% { transform: rotate(0deg); }
      100% { transform: rotate(360deg); }
    }
    @keyframes pulse {
      0% { opacity: 0.7; }
      50% { opacity: 1; }
      100% { opacity: 0.7; }
    }
    .rotate {
      animation: rotate 20s linear infinite;
      transform-origin: center;
    }
    .pulse {
      animation: pulse 2s ease-in-out infinite;
    }
  </style>
  
  <!-- Background Circle -->
  <circle cx="16" cy="16" r="15" fill="#f9f9f9" stroke="#3B82F6" stroke-width="1"/>
  
  <!-- Rotating Gear -->
  <g class="rotate">
    <path d="M16,6 L17,8 L19,8 L18,10 L19,12 L16,11 L13,12 L14,10 L13,8 L15,8 Z" fill="#3B82F6" fill-opacity="0.7"/>
    <path d="M16,21 L17,23 L19,23 L18,25 L19,27 L16,26 L13,27 L14,25 L13,23 L15,23 Z" fill="#3B82F6" fill-opacity="0.7"/>
    <path d="M6,16 L8,17 L8,19 L10,18 L12,19 L11,16 L12,13 L10,14 L8,13 L8,15 Z" fill="#3B82F6" fill-opacity="0.7"/>
    <path d="M21,16 L23,17 L23,19 L25,18 L27,19 L26,16 L27,13 L25,14 L23,13 L23,15 Z" fill="#3B82F6" fill-opacity="0.7"/>
  </g>
  
  <!-- 3D Box -->
  <g class="pulse">
    <!-- Bottom face -->
    <polygon points="16,18 12,16 16,14 20,16" fill="#10B981" fill-opacity="0.7"/>
    <!-- Left face -->
    <polygon points="12,16 12,12 16,10 16,14" fill="#3B82F6" fill-opacity="0.8"/>
    <!-- Right face -->
    <polygon points="16,14 16,10 20,12 20,16" fill="#6366F1" fill-opacity="0.9"/>
  </g>
</svg>